PathFileType	4	(X/Y/Z)	C:\Users\Willi\SynologyDrive\Deimel_MSc_Deadlift\Athlete_03\Athlete_3_22_07_06\dl_75\marker_experimental.trc
DataRate	CameraRate	NumFrames	NumMarkers	Units	OrigDataRate	OrigDataStartFrame	OrigNumFrames
200.000000	200.000000	4	59	mm	200.000000	1070	2855
Frame#	Time	BR			GLAB			RFHD			LFHD			C7			T6			SPINMOL			SPINM2			SPINM3			T12			BELTOL			BELT2			BELT3			SACROL			SACR2			SACR3			LTHOL			LTH2			LTH3			LSHAOL			LSHA2			LSHA3			LHEE			LTOE			LM5			RTHOL			RTH2			RTH3			RSHAOL			RSHA2			RSHA3			RHEE			RTOE			RM5			STRN			XIPH			LACR			LUAOL			LUA2			LUA3			LLAOL			LLA2			LLA3			LWRU			RACR			RUAOL			RUA2			RUA3			RLAOL			RLA2			RLA3			RWRU			BL			USERMO0			USERMO1			USERMO2			USERMO3			USERMO4			USERMO5			
		X1	Y1	Z1	X2	Y2	Z2	X3	Y3	Z3	X4	Y4	Z4	X5	Y5	Z5	X6	Y6	Z6	X7	Y7	Z7	X8	Y8	Z8	X9	Y9	Z9	X10	Y10	Z10	X11	Y11	Z11	X12	Y12	Z12	X13	Y13	Z13	X14	Y14	Z14	X15	Y15	Z15	X16	Y16	Z16	X17	Y17	Z17	X18	Y18	Z18	X19	Y19	Z19	X20	Y20	Z20	X21	Y21	Z21	X22	Y22	Z22	X23	Y23	Z23	X24	Y24	Z24	X25	Y25	Z25	X26	Y26	Z26	X27	Y27	Z27	X28	Y28	Z28	X29	Y29	Z29	X30	Y30	Z30	X31	Y31	Z31	X32	Y32	Z32	X33	Y33	Z33	X34	Y34	Z34	X35	Y35	Z35	X36	Y36	Z36	X37	Y37	Z37	X38	Y38	Z38	X39	Y39	Z39	X40	Y40	Z40	X41	Y41	Z41	X42	Y42	Z42	X43	Y43	Z43	X44	Y44	Z44	X45	Y45	Z45	X46	Y46	Z46	X47	Y47	Z47	X48	Y48	Z48	X49	Y49	Z49	X50	Y50	Z50	X51	Y51	Z51	X52	Y52	Z52	X53	Y53	Z53	X54	Y54	Z54	X55	Y55	Z55	X56	Y56	Z56	X57	Y57	Z57	X58	Y58	Z58	X59	Y59	Z59	

1071	5.350000000000001	199.4777374267578	251.7524719238281	-101.6901550292969	553.9457397460938	755.2286987304689	-1197.96240234375	560.13037109375	820.4588623046876	-1124.172119140625	557.5447387695312	813.5882568359376	-1279.374755859375	418.5856018066406	964.6743774414064	-1203.43310546875	223.9969787597656	1031.654907226562	-1217.749389648438	188.0820159912109	1041.432495117188	-1220.316284179688	126.3882446289062	1042.350341796875	-1169.400146484375	125.8955841064453	1041.87744140625	-1219.264892578125	68.03282928466797	1031.593872070312	-1222.548950195312	37.41596984863281	1054.565673828125	-1221.433227539062	-21.80151557922363	1040.103271484375	-1169.663208007812	-24.16963195800781	1045.436157226562	-1219.461547851562	-133.7091369628906	970.1364746093751	-1245.85546875	-124.5195846557617	973.4011840820314	-1195.629272460938	-181.7053680419922	943.4505615234376	-1208.280639648438	-4.135130405426025	709.0288696289064	-1445.791137695312	-14.01168155670166	630.0329589843751	-1437.48046875	28.67911148071289	656.7066650390626	-1442.592651367188	88.68263244628906	337.6602478027345	-1431.598999023438	43.75594329833984	273.8904724121095	-1421.177734375	93.33670806884766	276.8015441894532	-1421.991088867188	2.043404579162598	64.5955123901368	-1319.984741210938	213.3345947265625	73.91628265380868	-1325.806396484375	167.5314025878906	57.52696228027352	-1430.511840820312	-6.874640941619873	678.9651489257814	-998.769775390625	67.93495941162109	651.2141113281251	-994.1895751953125	24.94786262512207	625.4735107421876	-997.4966430664062	63.82808685302734	337.0345153808594	-999.3123168945312	101.2845153808594	267.1037902832032	-1004.198364257812	52.50363159179688	277.8087768554688	-1010.94775390625	-0.8846161365509033	62.31390380859382	-1112.469116210938	211.9051361083984	69.34653472900398	-1094.08203125	165.5227508544922	67.18629455566412	-997.8522338867188	343.8167114257812	802.8171997070314	-1209.56005859375	190.7082672119141	762.7116699218751	-1198.461181640625	385.2917175292969	845.2006225585939	-1400.218139648438	327.0924072265625	740.0875854492189	-1478.345458984375	284.041015625	697.0471191406251	-1506.648071289062	320.8719787597656	674.3063354492189	-1478.559448242188	252.074462890625	466.2881469726564	-1493.111206054688	222.4163360595703	408.6305236816407	-1504.66015625	252.4736175537109	408.0262451171876	-1464.986938476562	218.7179565429688	317.4864501953126	-1481.511474609375	379.4541625976562	841.2521972656251	-1023.621948242188	322.1811828613281	699.9266967773439	-977.1443481445312	307.7431640625	642.5296020507814	-1004.596252441406	303.9979553222656	640.1705322265626	-954.8091430664062	257.177978515625	452.4786987304688	-951.2183227539062	251.6481628417969	397.5473327636719	-985.5668334960938	237.6903228759766	392.7517089843751	-936.655517578125	220.0851898193359	320.2421569824219	-938.2058715820312	179.5987091064453	248.0660552978517	-2324.3671875	0.01895680092275143	0.262921005487442	-0.3425990045070648	0.3172020018100739	2.792720079421997	-0.2749870121479033	2.830080032348633	0.03235640004277229	-0.02459540031850338	0.007301520090550184	0.01158529985696078	-0.01552690006792545	0.02784249931573868	0.01144270040094852	-0.01286839973181486	0.008876999840140343	0	0	
1072	5.355	199.4908294677734	251.7238922119141	-101.6885986328125	554.4387817382812	755.8083496093751	-1197.683471679688	560.5411987304688	821.0153808593751	-1123.8681640625	558.0330810546875	814.1916503906251	-1279.091796875	418.7170715332031	965.1153564453126	-1203.247314453125	224.0323944091797	1031.770141601562	-1217.534301757812	188.1485137939453	1041.455200195312	-1220.106201171875	126.456916809082	1042.27099609375	-1169.187377929688	125.9615478515625	1041.787231445312	-1219.055053710938	68.24618530273438	1031.484130859375	-1222.327392578125	37.66115570068359	1054.52001953125	-1221.201171875	-21.58942031860352	1040.015991210938	-1169.483032226562	-23.92370223999023	1045.387939453125	-1219.278198242188	-133.4762420654297	970.1787109375001	-1245.7939453125	-124.3145523071289	973.4011230468751	-1195.574096679688	-181.4940032958984	943.4674072265626	-1208.270751953125	-3.884974479675293	709.1767578125001	-1445.911865234375	-13.82334232330322	630.1889648437501	-1437.619140625	28.88796234130859	656.8289184570314	-1442.712280273438	88.702392578125	337.6502075195314	-1431.68310546875	43.80192565917969	273.8833312988282	-1421.261108398438	93.37752532958984	276.8059387207032	-1422.108642578125	2.090511083602905	64.6335983276368	-1320.012939453125	213.372802734375	73.86148071289071	-1325.82568359375	167.5500946044922	57.47331237792977	-1430.573608398438	-6.718794822692871	678.9147338867189	-998.8952026367188	68.09141540527344	651.1609497070314	-994.3446044921875	25.10414695739746	625.4232788085939	-997.6524658203125	64.07110595703125	336.9797058105469	-999.4796142578125	101.5534973144531	267.0664672851563	-1004.381286621094	52.75933456420898	277.7478027343751	-1011.077514648438	-0.8279094696044922	62.3542785644532	-1112.565673828125	211.9468994140625	69.26914215087898	-1094.150634765625	165.5549163818359	67.24114227294928	-997.9166259765625	344.2599792480469	803.2402954101564	-1209.371948242188	191.2649536132812	762.7581176757814	-1198.31591796875	385.6732177734375	845.8241577148439	-1400.035034179688	327.4349365234375	740.3205566406251	-1478.03076171875	284.3450317382812	697.2716064453126	-1506.245483398438	321.1329650878906	674.5517578125001	-1478.070922851562	252.4013977050781	466.6794738769532	-1492.623657226562	222.6302795410156	409.0664672851564	-1504.11083984375	252.9083099365234	408.3897094726564	-1464.613037109375	219.0654449462891	317.8869018554689	-1481.095458984375	379.6713256835938	842.0651245117189	-1023.481323242188	322.5051574707031	700.4340820312501	-977.5100708007812	308.1063537597656	643.1240844726564	-1005.155639648438	304.31494140625	640.6240234375001	-955.3696899414062	257.6056213378906	452.8805847167969	-951.9065551757812	252.0854644775391	397.9445800781251	-986.2239379882812	238.0425109863281	393.1912231445313	-937.3226318359375	220.4652709960938	320.7033996582032	-938.7841796875	179.6164398193359	248.0421600341798	-2324.36767578125	0.01898409985005856	0.2616139948368073	-0.3446930050849915	0.3169600069522858	2.788660049438477	-0.276107996702194	2.83080005645752	0.03323360159993172	-0.0253129992634058	0.007365889847278595	0.01249639969319105	-0.01546700019389391	0.0283816996961832	0.01227020006626844	-0.0137729998677969	0.009228750132024288	0	0	
1073	5.36	199.5028228759766	251.6939392089844	-101.686637878418	554.9533081054688	756.4006958007814	-1197.407470703125	560.9686279296875	821.5864868164064	-1123.567749023438	558.5391235351562	814.8097534179689	-1278.812866210938	418.8447265625	965.5625610351564	-1203.072143554688	224.0622406005859	1031.888305664062	-1217.315673828125	188.2152404785156	1041.473510742188	-1219.889282226562	126.5260620117188	1042.185913085938	-1168.966064453125	126.0278167724609	1041.691772460938	-1218.837768554688	68.47430419921875	1031.373901367188	-1222.095458984375	37.9257698059082	1054.476928710938	-1220.95947265625	-21.35870361328125	1039.933349609375	-1169.29345703125	-23.65867614746094	1045.34716796875	-1219.085205078125	-133.2297973632812	970.2396240234376	-1245.722900390625	-124.0934448242188	973.4193115234376	-1195.5107421875	-181.2691192626953	943.5057983398439	-1208.253784179688	-3.650917291641235	709.3384399414064	-1446.044311523438	-13.65615940093994	630.3598632812501	-1437.766967773438	29.0772590637207	656.9626464843751	-1442.845703125	88.7022705078125	337.638397216797	-1431.778198242188	43.82785797119141	273.8733520507814	-1421.3515625	93.39781951904297	276.8069763183595	-1422.227783203125	2.12848424911499	64.66623687744149	-1320.041381835938	213.4010314941406	73.81937408447274	-1325.851806640625	167.5632934570312	57.41869735717782	-1430.637329101562	-6.573977947235107	678.8787231445314	-999.004638671875	68.23470306396484	651.1168823242189	-994.4797973632812	25.24557876586914	625.3852539062501	-997.7896728515625	64.29232788085938	336.9263610839844	-999.6286010742188	101.8000259399414	267.0321044921876	-1004.546752929688	52.99301147460938	277.6895141601563	-1011.187561035156	-0.7775321006774902	62.39079666137702	-1112.654663085938	211.9821624755859	69.20047760009773	-1094.213500976562	165.5828399658203	67.2926864624024	-997.9750366210938	344.7103881835938	803.6723632812501	-1209.193603515625	191.8336944580078	762.8043823242189	-1198.170043945312	386.0423278808594	846.4795532226564	-1399.8642578125	327.7445678710938	740.5925292968751	-1477.728637695312	284.6159057617188	697.5418090820314	-1505.861938476562	321.3641052246094	674.8361816406251	-1477.61083984375	252.7497253417969	467.0926818847657	-1492.134643554688	222.8870697021484	409.5182495117189	-1503.55810546875	253.3756713867188	408.7834472656251	-1464.228393554688	219.4640808105469	318.3133850097657	-1480.66552734375	379.8829345703125	842.9227294921876	-1023.349670410156	322.8020935058594	700.9776611328126	-977.8707885742188	308.4679870605469	643.7478027343751	-1005.705932617188	304.5986633300781	641.1174316406251	-955.923828125	258.0389404296875	453.3182983398438	-952.6036987304688	252.5585632324219	398.3762512207032	-986.8909301757812	238.4104766845703	393.6609497070313	-938.0052490234375	220.8751068115234	321.1949462890626	-939.3858032226562	179.6343383789062	248.0183563232423	-2324.369384765625	0.01897170022130013	0.2597450017929077	-0.3473570048809052	0.3168329894542694	2.789550065994263	-0.2776049971580504	2.831520080566406	0.03415549919009209	-0.02609690092504024	0.007413620129227638	0.01350220013409853	-0.01572540029883385	0.02881200052797794	0.01326320040971041	-0.01483950018882751	0.00963171012699604	0	0	
1074	5.365	199.5138549804688	251.6624603271484	-101.6843032836914	555.4882202148438	757.0045776367189	-1197.134887695312	561.4119873046875	822.1707763671876	-1123.271728515625	559.0618896484375	815.4416503906251	-1278.538940429688	418.9690551757812	966.0158691406251	-1202.906494140625	224.0872344970703	1032.011474609375	-1217.09326171875	188.2832946777344	1041.489501953125	-1219.666015625	126.5961151123047	1042.097778320312	-1168.737060546875	126.0954513549805	1041.594482421875	-1218.614501953125	68.71727752685547	1031.265502929688	-1221.855590820312	38.2101936340332	1054.43798828125	-1220.710571289062	-21.10893440246582	1039.85791015625	-1169.096801757812	-23.37418174743652	1045.315551757812	-1218.884765625	-132.9685211181641	970.3204956054689	-1245.644287109375	-123.8555526733398	973.4575195312501	-1195.440063476562	-181.0298919677734	943.5672607421876	-1208.230712890625	-3.433059453964233	709.5128784179689	-1446.18701171875	-13.51025104522705	630.5445556640626	-1437.922607421875	29.24687576293945	657.1068115234376	-1442.99169921875	88.68361663818359	337.6253051757814	-1431.8857421875	43.83518218994141	273.8598937988282	-1421.449096679688	93.39912414550781	276.8041076660157	-1422.348022460938	2.157743215560913	64.69387817382821	-1320.069946289062	213.4203186035156	73.78855895996102	-1325.88427734375	167.5714569091797	57.36314392089852	-1430.70263671875	-6.443455219268799	678.8565063476564	-999.095947265625	68.36145782470703	651.0810546875001	-994.5913696289062	25.3687744140625	625.3586425781251	-997.9061279296875	64.48836517333984	336.8739318847657	-999.7599487304688	102.0212326049805	267.0002441406251	-1004.693786621094	53.2018928527832	277.6335144042969	-1011.27880859375	-0.7328096628189087	62.42390441894538	-1112.736328125	212.0118713378906	69.13885498046882	-1094.270141601562	165.6060943603516	67.33977508544928	-998.0272216796875	345.1671447753906	804.1136474609376	-1209.0263671875	192.4130096435547	762.8522338867189	-1198.029174804688	386.3983764648438	847.1725463867189	-1399.707153320312	328.01904296875	740.9119873046876	-1477.440795898438	284.8515625	697.8644409179689	-1505.496948242188	321.566162109375	675.1677246093751	-1477.182373046875	253.1234436035156	467.5316467285157	-1491.644165039062	223.1911773681641	409.9891357421876	-1503.000610351562	253.8784027099609	409.2118530273439	-1463.829345703125	219.9191741943359	318.7695312500001	-1480.217407226562	380.0870971679688	843.8236694335939	-1023.2275390625	323.0689697265625	701.5581665039064	-978.222900390625	308.8275146484375	644.3998413085939	-1006.241943359375	304.8460083007812	641.6510009765626	-956.4668579101562	258.4772644042969	453.7908020019532	-953.3076782226562	253.0678863525391	398.8419494628907	-987.5667114257812	238.7937164306641	394.1592407226563	-938.7035522460938	221.3155975341797	321.7158813476563	-940.01171875	179.6526031494141	247.9947509765626	-2324.37255859375	0.01894040033221245	0.2574470043182373	-0.3505110144615173	0.3167420029640198	2.794919967651367	-0.2794300019741057	2.832269906997681	0.03502419963479042	-0.02693220041692257	0.007444969844073057	0.01459989976137877	-0.01631320081651211	0.02918170019984245	0.01441700011491776	-0.01606870070099831	0.01008220016956329	0	0	
